<svg xmlns="http://www.w3.org/2000/svg" width="204.564" height="29.408" viewBox="0 0 204.564 29.408">
  <g id="Group_4605" data-name="Group 4605" transform="translate(-71 -16.296)">
    <g id="Group_4532" data-name="Group 4532" transform="translate(-211 -444.035)">
      <g id="Group_4" data-name="Group 4" transform="translate(282 460.331)">
        <path id="Path_11" data-name="Path 11" d="M325.224,471.365l0,0c-.048-.056-.09-.1-.135-.153l.174-.065-.494-1.956-.884-.807,0,2.36,0,0a3.458,3.458,0,0,0,.077.968,15.881,15.881,0,0,1,.579,9.851c-.029.1-2.859,9.05-17.849,9.643a19.154,19.154,0,0,1-6.095-.812c-4.079-1.281-6.507-3.935-7.023-7.676a5.353,5.353,0,0,1,1.471-3.936l.92-1.016-.458,1.144a6.744,6.744,0,0,0-.445,1.952,6.226,6.226,0,0,0,2.774,5.254c1.975,1.409,4.891,2.143,8.669,2.181a23.607,23.607,0,0,0,7.022-1.29c3.2-1.165,7.024-3.651,7.024-8.884a10.568,10.568,0,0,0-2.293-5.659c-2.023-2.58-6.3-5.655-15.171-5.655a36.088,36.088,0,0,0-10.545,1.974C287.735,470.538,282,474.255,282,482a13.254,13.254,0,0,0,2.207,6.947c.755.953,1.189,1.1,1.3,1.086.046-.01.151-.071.168-.4h0v-.119c0-.03,0-.055,0-.089v-2.4l-.648-.179a16.236,16.236,0,0,1,.071-7.775c.029-.1,2.859-9.05,17.849-9.643a19.519,19.519,0,0,1,6.094.812c4.079,1.281,6.507,3.935,7.022,7.676a5.373,5.373,0,0,1-1.471,3.936l-.921,1.016.458-1.144a6.745,6.745,0,0,0,.445-1.952,6.224,6.224,0,0,0-2.773-5.254c-1.975-1.409-4.892-2.143-8.669-2.181a23.793,23.793,0,0,0-7.022,1.29c-3.2,1.165-7.024,3.652-7.024,8.884a10.573,10.573,0,0,0,2.293,5.659c2.023,2.58,6.3,5.655,15.171,5.655a35.937,35.937,0,0,0,10.545-1.974c4.81-1.754,10.543-5.471,10.543-13.217A13.38,13.38,0,0,0,325.224,471.365Zm-20.4,4.325c3.87,0,7.018,2.074,7.018,4.622s-3.148,4.622-7.018,4.622-7.018-2.073-7.018-4.622S300.95,475.691,304.819,475.691Z" transform="translate(-282 -464.408)" fill="#4a1062"/>
        <path id="Path_12" data-name="Path 12" d="M306.55,487.337a35.916,35.916,0,0,0,10.545-1.974c4.81-1.754,10.543-5.471,10.543-13.217a13.382,13.382,0,0,0-2.414-7.26l0,0c-.677-.8-1.059-.963-1.174-.94-.074.016-.292.154-.083,1.291a15.881,15.881,0,0,1,.579,9.851c-.029.1-2.859,9.05-17.849,9.643a19.161,19.161,0,0,1-6.095-.812c-4.079-1.28-6.507-3.935-7.023-7.676a5.355,5.355,0,0,1,1.471-3.936l.92-1.016-.458,1.144a6.744,6.744,0,0,0-.445,1.952,6.226,6.226,0,0,0,2.774,5.254c1.975,1.409,4.891,2.143,8.669,2.181a23.592,23.592,0,0,0,7.022-1.29c3.2-1.165,7.024-3.651,7.024-8.884a10.567,10.567,0,0,0-2.293-5.659c-2.023-2.58-6.3-5.655-15.171-5.655a36.106,36.106,0,0,0-10.545,1.974c-4.81,1.754-10.544,5.471-10.544,13.217a13.255,13.255,0,0,0,2.207,6.947c.755.953,1.189,1.1,1.3,1.086.072-.015.292-.152.085-1.281l-.021-.115a15.958,15.958,0,0,1-.471-9.574c.029-.1,2.859-9.05,17.849-9.643a19.512,19.512,0,0,1,6.094.812c4.079,1.281,6.507,3.935,7.022,7.676a5.373,5.373,0,0,1-1.471,3.936l-.92,1.016.458-1.143a6.749,6.749,0,0,0,.445-1.952,6.225,6.225,0,0,0-2.773-5.254c-1.975-1.409-4.892-2.143-8.669-2.181a23.82,23.82,0,0,0-7.022,1.29c-3.2,1.165-7.024,3.651-7.024,8.884a10.572,10.572,0,0,0,2.293,5.659C293.4,484.262,297.677,487.337,306.55,487.337Zm-1.73-18.125c3.87,0,7.018,2.074,7.018,4.622s-3.148,4.622-7.018,4.622-7.017-2.073-7.017-4.622S300.95,469.212,304.819,469.212Z" transform="translate(-282 -460.331)" fill="#dd38f2"/>
        <ellipse id="Ellipse_3" data-name="Ellipse 3" cx="4.359" cy="2.871" rx="4.359" ry="2.871" transform="translate(18.461 12.123)" fill="#4a1062"/>
        <rect id="Rectangle_2" data-name="Rectangle 2" width="8.718" height="1.491" transform="translate(18.461 13.503)" fill="#4a1062"/>
        <ellipse id="Ellipse_4" data-name="Ellipse 4" cx="4.359" cy="2.871" rx="4.359" ry="2.871" transform="translate(18.461 10.632)" fill="#fff"/>
      </g>
      <g id="Group_5" data-name="Group 5" transform="translate(331.968 464.578)">
        <path id="Path_13" data-name="Path 13" d="M475.133,486.95a1.97,1.97,0,0,0,.973-.237l-.463,2.816a2.912,2.912,0,0,1-2.195.791q-2.159,0-2.8-1a2.568,2.568,0,0,1-.427-1.411,8.044,8.044,0,0,1,.1-1.317l1.423-8.019h4.034l-1.329,7.473a1.584,1.584,0,0,0-.024.261Q474.422,486.95,475.133,486.95Zm-2.918-12.242a3.1,3.1,0,0,1,.676-2.219,2.8,2.8,0,0,1,2.1-.7q1.993,0,1.993,1.756a3.018,3.018,0,0,1-.676,2.183,2.867,2.867,0,0,1-2.123.688Q472.214,476.417,472.215,474.708Z" transform="translate(-450.423 -471.79)" fill="#fff"/>
        <path id="Path_14" data-name="Path 14" d="M494.776,486.656a.55.55,0,0,0,.629.617,2.149,2.149,0,0,0,1.056-.237l-.523,2.79a2.877,2.877,0,0,1-2.158.817q-2.159,0-2.8-1a2.573,2.573,0,0,1-.4-1.4,8.169,8.169,0,0,1,.095-1.329l2.586-14.615h4.033L494.8,486.371A1.75,1.75,0,0,0,494.776,486.656Z" transform="translate(-463.233 -472.112)" fill="#fff"/>
        <path id="Path_15" data-name="Path 15" d="M656.156,497.331a.55.55,0,0,0,.629.617,2.15,2.15,0,0,0,1.056-.237l-.443,2.922a3.439,3.439,0,0,1-2.238.685q-2.61,0-2.895-1.9a3.859,3.859,0,0,1-3.488,1.9q-3.891,0-3.891-3.346a7.426,7.426,0,0,1,.119-1.257l.5-2.776a5.9,5.9,0,0,1,1.744-3.4,5.015,5.015,0,0,1,3.559-1.27,3.58,3.58,0,0,1,2.977,1.021l.119-.712h3.607l-1.329,7.473A1.716,1.716,0,0,0,656.156,497.331Zm-7.023-1.139a2.837,2.837,0,0,0-.047.593,1.083,1.083,0,0,0,.356.747,1.619,1.619,0,0,0,1.2.368,1.929,1.929,0,0,0,1.459-.664l.712-3.986q-.261-.593-1.234-.594a1.936,1.936,0,0,0-2.135,1.756Z" transform="translate(-560.346 -482.787)" fill="#fff"/>
        <path id="Path_16" data-name="Path 16" d="M432.138,474.8l-5.457,8.185-2.539-8.185h-4.46l-2.869,16.261c-.029.256,0,.821.871.821h3.255l1.708-9.633,1.613,5.742h3.108l3.654-5.742-1.569,8.85c-.02.271.05.783.874.783h3.281l3.013-17.083Z" transform="translate(-416.808 -473.683)" fill="#fff"/>
        <path id="Path_17" data-name="Path 17" d="M522.741,482.15h0l.658-3.256c-4.157,0-4.648,3.194-4.648,3.194-.425,1.858-2.519,2.3-2.842,2.357a12.346,12.346,0,0,1-1.335.123l.193-1.161h0l.067-.4.006-.007.671-3.764,1.222-6.93H512.7l-3.179,18.008h4.033l.641-3.607q1-.047,1.495-.119l.071.332a6.276,6.276,0,0,0,1.2,2.871,3.055,3.055,0,0,0,2.384.854A3.74,3.74,0,0,0,521.68,490l.511-2.965a1.968,1.968,0,0,1-.973.237,1.223,1.223,0,0,1-1.329-.9l-.261-.878C521.185,484.654,522.478,483.551,522.741,482.15Z" transform="translate(-475.156 -472.112)" fill="#fff"/>
        <path id="Path_18" data-name="Path 18" d="M555.8,490.1l-1.329,7.569a2.272,2.272,0,0,1-1.732.736q-1.281,0-1.281-1.139a5.188,5.188,0,0,1,.071-.854l1.115-6.311h-4.034l-1.329,7.474a9.047,9.047,0,0,0-.119,1.447,3.629,3.629,0,0,0,.214,1.281,2.183,2.183,0,0,0,1.708,1.353,9.4,9.4,0,0,0,4.361-.585c.146-.074.3-.148.455-.222l-.238,1.376q-.475,2.8-2.016,2.8a.937.937,0,0,1-1-.716l0,0,0-.02a1.137,1.137,0,0,1-.028-.121c-.078-.242-.362-.71-1.385-.71h-2.1a3.239,3.239,0,0,0-.543,1.778,2.848,2.848,0,0,0,1.056,2.3,5.4,5.4,0,0,0,3.452.878,6.037,6.037,0,0,0,4.259-1.756,8.273,8.273,0,0,0,2.384-4.769l2.088-11.792Z" transform="translate(-498.488 -483.311)" fill="#fff"/>
        <path id="Path_19" data-name="Path 19" d="M691.489,490.1l-1.329,7.569a2.272,2.272,0,0,1-1.732.736q-1.281,0-1.281-1.139a5.181,5.181,0,0,1,.071-.854l1.115-6.311H684.3l-1.329,7.474a9.047,9.047,0,0,0-.119,1.447,3.628,3.628,0,0,0,.214,1.281,2.183,2.183,0,0,0,1.708,1.353,9.4,9.4,0,0,0,4.361-.585c.146-.074.3-.148.455-.222l-.237,1.376q-.475,2.8-2.017,2.8a.938.938,0,0,1-1-.716l0,0s0-.008,0-.02c-.01-.04-.022-.079-.028-.121-.078-.242-.362-.71-1.385-.71h-2.1a3.239,3.239,0,0,0-.543,1.778,2.848,2.848,0,0,0,1.056,2.3,5.4,5.4,0,0,0,3.452.878,6.036,6.036,0,0,0,4.259-1.756,8.274,8.274,0,0,0,2.384-4.769l2.088-11.792Z" transform="translate(-583.881 -483.311)" fill="#fff"/>
        <path id="Path_20" data-name="Path 20" d="M605.428,472.263l-4.357,13.644H600.5l.426-13.644H596.04l-4.381,13.644h-.576l.45-13.644h-4.907l-.167,17.151h0a.806.806,0,0,0,.859.871h-.87v0h7.511l3.355-11.542-.627,10.71a.8.8,0,0,0,.859.828h-.908v0h7.511l6.184-18.026Z" transform="translate(-523.571 -472.088)" fill="#fff"/>
      </g>
    </g>
    <g id="Group_4542" data-name="Group 4542" transform="translate(-1227.408 -357.702)">
      <path id="Path_38399" data-name="Path 38399" d="M1472.677,389.968h-6.3l-3.531,6.4h-1.439l10.112-18.059h.824l2.472,18.059h-1.292Zm-.147-1.132-.48-3.58q-.381-2.977-.479-4.946-.369.775-.794,1.6t-3.771,6.926Z" fill="#dd38f2"/>
      <path id="Path_38400" data-name="Path 38400" d="M1508.606,382.9q0,6.152-7.5,6.151h-2.473l-1.587,7.406h-1.267l3.814-17.985h3.875a5.7,5.7,0,0,1,3.813,1.138A4.094,4.094,0,0,1,1508.606,382.9Zm-9.78,5.019h2.35a7.331,7.331,0,0,0,4.595-1.187,4.51,4.51,0,0,0,1.495-3.758q0-3.37-4.048-3.371h-2.6Z" transform="translate(-18.719 -0.088)" fill="#dd38f2"/>
      <path id="Path_38401" data-name="Path 38401" d="M1539.542,382.9q0,6.152-7.5,6.151h-2.473l-1.587,7.406h-1.267l3.814-17.985h3.875a5.7,5.7,0,0,1,3.813,1.138A4.1,4.1,0,0,1,1539.542,382.9Zm-9.78,5.019h2.35a7.33,7.33,0,0,0,4.595-1.187,4.509,4.509,0,0,0,1.495-3.758q0-3.37-4.047-3.371h-2.6Z" transform="translate(-36.57 -0.088)" fill="#dd38f2"/>
    </g>
  </g>
</svg>
