<svg xmlns="http://www.w3.org/2000/svg" width="123.13" height="79.338" viewBox="0 0 123.13 79.338">
  <g id="Group_4474" data-name="Group 4474" transform="translate(-282 -460.331)">
    <path id="Path_11" data-name="Path 11" d="M398.614,479.1l-.008-.011c-.129-.152-.244-.276-.365-.412l.469-.176-1.334-5.276-2.384-2.177.011,6.367.005.009a9.328,9.328,0,0,0,.208,2.612,42.846,42.846,0,0,1,1.561,26.577c-.077.258-7.713,24.415-48.153,26.015a51.679,51.679,0,0,1-16.443-2.19c-11-3.455-17.556-10.616-18.946-20.709a14.441,14.441,0,0,1,3.97-10.619l2.483-2.741-1.236,3.086a18.192,18.192,0,0,0-1.2,5.267c-.007.086-.668,8.359,7.483,14.175,5.327,3.8,13.2,5.781,23.387,5.885a63.691,63.691,0,0,0,18.945-3.481c8.645-3.143,18.949-9.851,18.949-23.967a28.512,28.512,0,0,0-6.187-15.268c-5.459-6.96-16.991-15.256-40.93-15.256a97.363,97.363,0,0,0-28.449,5.325C297.472,476.867,282,486.895,282,507.792c0,.1-.289,8.973,5.953,18.741,2.036,2.57,3.207,2.973,3.5,2.93.124-.026.407-.192.454-1.089l0,0v-.322c0-.082,0-.149,0-.24v-6.487l-1.747-.484a43.8,43.8,0,0,1,.192-20.977c.077-.259,7.713-24.416,48.154-26.016a52.653,52.653,0,0,1,16.442,2.191c11,3.455,17.556,10.616,18.945,20.708a14.5,14.5,0,0,1-3.968,10.619l-2.484,2.741,1.236-3.086a18.2,18.2,0,0,0,1.2-5.267c.007-.086.669-8.358-7.482-14.174-5.328-3.8-13.2-5.782-23.388-5.885a64.193,64.193,0,0,0-18.945,3.48c-8.644,3.142-18.949,9.852-18.949,23.968a28.524,28.524,0,0,0,6.187,15.267c5.459,6.96,16.992,15.257,40.93,15.257a96.952,96.952,0,0,0,28.45-5.326c12.977-4.732,28.445-14.76,28.445-35.657C405.131,498.58,405.419,489.176,398.614,479.1Zm-55.05,11.669c10.44,0,18.934,5.594,18.934,12.47s-8.494,12.47-18.934,12.47-18.933-5.594-18.933-12.47S333.125,490.769,343.564,490.769Z" fill="#4a1062"/>
    <path id="Path_12" data-name="Path 12" d="M348.232,533.19a96.9,96.9,0,0,0,28.45-5.325c12.977-4.732,28.445-14.76,28.445-35.657,0-.106.292-9.51-6.513-19.587l-.008-.011c-1.826-2.152-2.857-2.6-3.166-2.537-.2.042-.788.416-.224,3.484a42.847,42.847,0,0,1,1.561,26.577c-.077.259-7.713,24.416-48.153,26.016a51.7,51.7,0,0,1-16.443-2.191c-11-3.454-17.555-10.615-18.946-20.708a14.448,14.448,0,0,1,3.97-10.62l2.483-2.74-1.236,3.086a18.191,18.191,0,0,0-1.2,5.267c-.007.086-.668,8.358,7.483,14.175,5.327,3.8,13.195,5.781,23.387,5.884a63.655,63.655,0,0,0,18.945-3.481c8.645-3.142,18.949-9.85,18.949-23.967a28.51,28.51,0,0,0-6.187-15.267c-5.459-6.96-16.991-15.257-40.93-15.257a97.4,97.4,0,0,0-28.449,5.325C297.472,470.389,282,480.417,282,501.314c0,.1-.289,8.972,5.953,18.741,2.036,2.57,3.207,2.973,3.5,2.929.2-.04.788-.409.229-3.456l-.057-.311a43.054,43.054,0,0,1-1.271-25.83c.077-.258,7.713-24.415,48.154-26.015a52.634,52.634,0,0,1,16.442,2.19c11.005,3.455,17.556,10.616,18.945,20.709a14.5,14.5,0,0,1-3.969,10.619l-2.483,2.74,1.236-3.085a18.207,18.207,0,0,0,1.2-5.267c.007-.086.669-8.358-7.482-14.175-5.328-3.8-13.2-5.782-23.388-5.885a64.252,64.252,0,0,0-18.945,3.481c-8.644,3.142-18.949,9.851-18.949,23.968a28.522,28.522,0,0,0,6.187,15.266C312.761,524.894,324.294,533.19,348.232,533.19Zm-4.668-48.9c10.44,0,18.934,5.594,18.934,12.47s-8.494,12.47-18.934,12.47-18.932-5.594-18.932-12.47S333.125,484.291,343.564,484.291Z" fill="#dd38f2"/>
    <ellipse id="Ellipse_3" data-name="Ellipse 3" cx="11.759" cy="7.745" rx="11.759" ry="7.745" transform="translate(331.805 493.038)" fill="#4a1062"/>
    <rect id="Rectangle_2" data-name="Rectangle 2" width="23.519" height="4.023" transform="translate(331.805 496.761)" fill="#4a1062"/>
    <ellipse id="Ellipse_4" data-name="Ellipse 4" cx="11.759" cy="7.745" rx="11.759" ry="7.745" transform="translate(331.805 489.016)" fill="#fff"/>
  </g>
</svg>
