<svg xmlns="http://www.w3.org/2000/svg" width="33.631" height="33.631" viewBox="0 0 33.631 33.631">
  <g id="Group_4457" data-name="Group 4457" transform="translate(-1017.5 -2921.483)">
    <circle id="Ellipse_24" data-name="Ellipse 24" cx="16" cy="16" r="16" transform="translate(1019.175 2921.483) rotate(3)" fill="#4a1062"/>
    <g id="Group_20" data-name="Group 20" transform="translate(1027.5 2932.483)">
      <path id="Path_22" data-name="Path 22" d="M841.861,300.59c-.628-.307-1.41-.689-2.372-1.183a.6.6,0,0,0-.414-.1h-.023c-.312,0-.307,0-1.462,1.9-.351.58-.812,1.34-1.422,2.336l-.719-1.182c-.466-.768-.466-.768-.637-.843l-4.417-1.945a.516.516,0,0,0-.725.472v9.222a.516.516,0,0,0,.319.478l4.444,1.831a.516.516,0,0,0,.713-.48l-.019-3.229,8.1,4.033.062.031a.515.515,0,0,0,.5-.026.512.512,0,0,0,.242-.437v-9.388C844.033,301.651,843.486,301.383,841.861,300.59Zm-6.759,3.185c.877,1.435,2.165,3.546,2.577,4.221l-2.559-1.286Zm1.67.762c1.1-1.8,1.751-2.865,2.138-3.506.16-.265.273-.452.353-.582,1.529.786,2.5,1.26,3.08,1.545l.449.22-3.72,6.074-.342-.556C838.314,307.055,837.694,306.047,836.772,304.536Zm3.061,4.54c.187-.3.416-.69.724-1.221.552-.952,1.3-2.242,2.443-4.062v6.846Zm-5.724,1.251-3.406-1.4v-8.085l3.358,1.48Z" transform="translate(-829.67 -299.299)" fill="#fff"/>
    </g>
  </g>
</svg>
