<svg xmlns="http://www.w3.org/2000/svg" width="604.502" height="139.8" viewBox="0 0 604.502 139.8">
  <text id="EXCHANGE" text-anchor="start" margin="auto" transform="translate(150 105.8)" fill="#fff" font-size="25" font-family="OpenSans-Light, Open Sans" font-weight="300" letter-spacing="1em"><tspan x="0" y="27">EXCHANGE</tspan></text>
  <path id="Path_38379" data-name="Path 38379" d="M753.011,289h-114.5" transform="translate(-638.509 -166.2)" fill="none" stroke="#fff" stroke-width="1"/>
  <path id="Path_38380" data-name="Path 38380" d="M753.011,289h-114.5" transform="translate(-148.509 -166.2)" fill="none" stroke="#fff" stroke-width="1"/>
  <g id="Group_5" data-name="Group 5" transform="translate(125 0)">
    <path id="Path_13" data-name="Path 13" d="M486.059,520.677a6.352,6.352,0,0,0,3.138-.765l-1.492,9.08a9.389,9.389,0,0,1-7.077,2.549q-6.963,0-9.029-3.214a8.282,8.282,0,0,1-1.377-4.552,25.941,25.941,0,0,1,.307-4.247l4.59-25.858h13.006l-4.285,24.1a5.107,5.107,0,0,0-.077.841Q483.764,520.677,486.059,520.677Zm-9.41-39.477q0-4.895,2.181-7.154t6.771-2.257q6.425,0,6.426,5.661,0,4.821-2.181,7.039T483,486.709Q476.647,486.709,476.649,481.2Z" transform="translate(-406.379 -471.79)" fill="#fff"/>
    <path id="Path_14" data-name="Path 14" d="M504.118,518.588a1.774,1.774,0,0,0,2.027,1.989,6.928,6.928,0,0,0,3.405-.765l-1.686,9c-2.449,1.989-3.9,2.634-6.959,2.634q-6.964,0-9.028-3.214a8.3,8.3,0,0,1-1.3-4.513,26.327,26.327,0,0,1,.306-4.285l8.339-47.128h13.006l-8.033,45.368A5.64,5.64,0,0,0,504.118,518.588Z" transform="translate(-402.404 -471.69)" fill="#fff"/>
    <path id="Path_15" data-name="Path 15" d="M681.227,515.277a1.774,1.774,0,0,0,2.027,1.989,6.933,6.933,0,0,0,3.405-.765l-1.43,9.421a11.089,11.089,0,0,1-7.216,2.209q-8.418,0-9.334-6.121a12.443,12.443,0,0,1-11.247,6.121q-12.546,0-12.546-10.789a23.953,23.953,0,0,1,.383-4.054l1.607-8.951a19.023,19.023,0,0,1,5.622-10.979q4.4-4.093,11.476-4.094t9.6,3.291l.383-2.3h11.63l-4.285,24.1A5.536,5.536,0,0,0,681.227,515.277ZM658.581,511.6a9.148,9.148,0,0,0-.153,1.912,3.492,3.492,0,0,0,1.147,2.41,5.223,5.223,0,0,0,3.863,1.186,6.222,6.222,0,0,0,4.706-2.142l2.295-12.852q-.843-1.912-3.978-1.914-5.893,0-6.886,5.662Z" transform="translate(-372.276 -468.378)" fill="#fff"/>
    <path id="Path_16" data-name="Path 16" d="M466.244,474.8l-17.6,26.395L440.461,474.8H426.079l-9.25,52.437c-.093.827.015,2.649,2.809,2.649h10.5l5.509-31.062,5.2,18.514h10.022l11.783-18.514-5.061,28.537c-.066.872.161,2.526,2.819,2.526h10.579L480.7,474.8Z" transform="translate(-416.808 -471.203)" fill="#fff"/>
    <path id="Path_17" data-name="Path 17" d="M552.147,504.06h.006l2.122-10.5c-13.4,0-14.987,10.3-14.987,10.3-1.372,5.992-8.122,7.415-9.165,7.6a39.832,39.832,0,0,1-4.3.4l.624-3.742v0l.217-1.3.018-.021,2.163-12.137,3.94-22.346H519.774l-10.251,58.069h13.006l2.067-11.63q3.213-.153,4.82-.383l.229,1.071q1.377,6.5,3.863,9.257t7.688,2.755a12.059,12.059,0,0,0,7.534-2.068l1.648-9.562a6.346,6.346,0,0,1-3.136.765q-3.444,0-4.285-2.907l-.842-2.83C547.13,512.131,551.3,508.577,552.147,504.06Z" transform="translate(-398.705 -471.69)" fill="#fff"/>
    <path id="Path_18" data-name="Path 18" d="M576.281,490.1,572,514.5a7.325,7.325,0,0,1-5.585,2.372q-4.131,0-4.131-3.673a16.721,16.721,0,0,1,.229-2.754l3.6-20.352H553.1l-4.285,24.1a29.183,29.183,0,0,0-.382,4.666,11.7,11.7,0,0,0,.689,4.132q1.148,3.29,5.508,4.361s7.537.96,14.063-1.887c.472-.238.958-.477,1.468-.715l-.766,4.438q-1.531,9.027-6.5,9.027a3.022,3.022,0,0,1-3.209-2.309l-.007.008s0-.026-.008-.065a3.691,3.691,0,0,1-.091-.391c-.252-.779-1.167-2.289-4.465-2.289h-6.766a10.445,10.445,0,0,0-1.75,5.734A9.186,9.186,0,0,0,550,546.329q3.4,2.829,11.131,2.83a19.465,19.465,0,0,0,13.733-5.662q6-5.662,7.688-15.377l6.733-38.025Z" transform="translate(-391.467 -468.216)" fill="#fff"/>
    <path id="Path_19" data-name="Path 19" d="M711.968,490.1,707.683,514.5a7.325,7.325,0,0,1-5.585,2.372q-4.13,0-4.131-3.673a16.721,16.721,0,0,1,.23-2.754l3.6-20.352H688.787L684.5,514.2a29.177,29.177,0,0,0-.383,4.666,11.7,11.7,0,0,0,.69,4.132q1.148,3.29,5.508,4.361s7.537.96,14.063-1.887c.472-.238.959-.477,1.468-.715l-.765,4.438q-1.53,9.027-6.5,9.027a3.024,3.024,0,0,1-3.209-2.309l-.007.008s0-.026-.008-.065c-.032-.129-.07-.254-.09-.391-.252-.779-1.166-2.289-4.465-2.289h-6.766a10.444,10.444,0,0,0-1.75,5.734,9.185,9.185,0,0,0,3.405,7.421q3.4,2.829,11.132,2.83a19.464,19.464,0,0,0,13.733-5.662q6-5.662,7.688-15.377l6.733-38.025Z" transform="translate(-364.974 -468.216)" fill="#fff"/>
    <path id="Path_20" data-name="Path 20" d="M647.646,472.263l-14.048,44H631.74l1.374-44H617.371l-14.128,44h-1.856l1.452-44H587.016l-.538,55.307h.009a2.6,2.6,0,0,0,2.769,2.809h-2.806v.011H610.67l10.818-37.218-2.022,34.536a2.563,2.563,0,0,0,2.772,2.671h-2.928v.011h24.219l19.941-58.126Z" transform="translate(-383.685 -471.698)" fill="#fff"/>
  </g>
</svg>
