<svg xmlns="http://www.w3.org/2000/svg" width="32" height="32" viewBox="0 0 32 32">
  <g id="Group_4456" data-name="Group 4456" transform="translate(-962.5 -2922.483)">
    <path id="Path_38382" data-name="Path 38382" d="M16,0A16,16,0,1,1,0,16,16,16,0,0,1,16,0Z" transform="translate(962.5 2922.483)" fill="#4a1062"/>
    <path id="Path_24" data-name="Path 24" d="M1098.162,299.534a1.151,1.151,0,0,0-1.348-.25l-12.649,4.829c-.692.264-.785.666-.779.882s.122.611.828.836l2.619.75,1.413,4.04a1.26,1.26,0,0,0,1.167.921,1.376,1.376,0,0,0,.931-.4l1.6-1.473,2.322,1.87.037.03a1.4,1.4,0,0,0,.849.318,1.194,1.194,0,0,0,1.141-1.056l2.073-10.234A1.257,1.257,0,0,0,1098.162,299.534Zm-5.53,4.414-3.01,3.2a.474.474,0,0,0-.115.211l-.579,2.345-1.146-3.276Zm-1.434,5.123-1.473,1.356.524-2.121Zm4-6.463a.474.474,0,0,0-.56-.747l-7.484,3.823-2.542-.727,12.544-4.789c.211-.081.271-.041.276-.035a.4.4,0,0,1,.009.277l-2.072,10.234c-.018.089-.075.3-.212.3a.475.475,0,0,1-.264-.116l-4.225-3.4Z" transform="translate(-112.886 2633.306)" fill="#fff"/>
  </g>
</svg>
