<svg xmlns="http://www.w3.org/2000/svg" width="32" height="32" viewBox="0 0 32 32">
  <g id="Group_4455" data-name="Group 4455" transform="translate(-907.5 -2922.483)">
    <path id="Path_38381" data-name="Path 38381" d="M16,0A16,16,0,1,1,0,16,16,16,0,0,1,16,0Z" transform="translate(907.5 2922.483)" fill="#4a1062"/>
    <g id="Group_29" data-name="Group 29" transform="translate(916.5 2932.483)">
      <path id="Path_34" data-name="Path 34" d="M1222.668,302.076h-.02l-.5.022-.089,0h-.008a.1.1,0,0,1-.1-.151h0l.361-1.03h0l.027-.078c.091-.316-.227-.221-.27-.207l0,0h0c-.517.188-1.5.54-1.839.632a3.513,3.513,0,0,0-4.151-.322,2.905,2.905,0,0,0-1.4,2.924,7.525,7.525,0,0,1-4.53-2.382v0s-.819-.961-1.258-.012a3.444,3.444,0,0,0-.228,2.045,3.355,3.355,0,0,0,.282.827l-.091-.035c-.089-.019-.215,0-.246.263l-.006.091v0h0l-.014.2a3.2,3.2,0,0,0,.543,1.9,3.365,3.365,0,0,0,.349.444l-.017,0c-.032,0-.1.013-.057.172l.18.545a3.346,3.346,0,0,0,1.647,1.954c-.76.319-1.388.529-2.41.865l-.166.055c-.758.288-.02.755-.02.755l.106.058a9.372,9.372,0,0,0,2.732.994,12.854,12.854,0,0,0,1.989.159,8.314,8.314,0,0,0,5.626-1.887,7.172,7.172,0,0,0,2.128-5.931,1.362,1.362,0,0,1,.254-.887c.285-.38.983-1.335,1.287-1.751h0C1222.931,302.088,1222.733,302.075,1222.668,302.076Zm-1.955,1.428a2.314,2.314,0,0,0-.443,1.505,6.179,6.179,0,0,1-1.814,5.176c-1.543,1.389-4.033,1.934-6.832,1.5a6.5,6.5,0,0,1-1.373-.4,23.145,23.145,0,0,0,2.576-1.065l1.535-.727a.036.036,0,0,0-.013-.068l-1.7-.108a2.357,2.357,0,0,1-1.842-1.017,3.049,3.049,0,0,0,.591-.1l1.617-.45a.036.036,0,0,0,0-.07l-1.63-.4a2.391,2.391,0,0,1-1.461-1.016,2.452,2.452,0,0,1-.3-.639,4.509,4.509,0,0,0,.606.091l1.509.149a.034.034,0,0,0,.037-.022.036.036,0,0,0-.011-.042l-1.2-.933a2.5,2.5,0,0,1-.956-2.552,8.559,8.559,0,0,0,5.889,2.6,2.171,2.171,0,0,1,.246.02.036.036,0,0,0,.032-.008.036.036,0,0,0,.012-.031,5.237,5.237,0,0,0-.091-.752,1.984,1.984,0,0,1,.871-2.376,2.589,2.589,0,0,1,3.054.252.822.822,0,0,0,.755.2c.179-.044.344-.094.527-.157l-.222.633c-.137.391.139.425.213.427h.1Z" transform="translate(-1208.316 -300.421)" fill="#fff"/>
    </g>
  </g>
</svg>
